<?xml version="1.0" encoding="utf-8"?>
<!-- Generator: Adobe Illustrator 21.0.2, SVG Export Plug-In . SVG Version: 6.00 Build 0)  -->
<svg version="1.1" id="Layer_1" xmlns="http://www.w3.org/2000/svg" xmlns:xlink="http://www.w3.org/1999/xlink" x="0px" y="0px"
	 viewBox="0 0 102.1 124" style="enable-background:new 0 0 102.1 124;" xml:space="preserve">
<style type="text/css">
	.st0{fill:#FCD000;}
	.st1{fill:#FFFFFF;}
</style>
<g>
	<path class="st0" d="M100.3,21.4L100.3,21.4l-0.8-1c-0.3-0.3-0.6-0.7-0.9-1L98,18.6c-0.1-0.1-0.2-0.3-0.3-0.4L97,17.6l0,0
		C90.8,11,82.9,6,74.3,3c-17.5-6-36.8-3-51.4,7.9C8.6,21.5,0.1,38.4,0,55.9c-0.3,8.6,1.6,17.4,5.6,25.3c9.4,18.9,29.5,31.1,51,31.1
		c3,0,6-0.3,9-0.8l0,0l0.1,0c0.5-0.1,1-0.1,1.4-0.3c1.7-0.3,2.9-1.6,2.9-3.1c0-1.6-1.4-3-3.3-3.1l0-0.2l-1.1,0.2
		c-21.7,4.2-44.6-7.1-54.4-26.7C8,71.7,6.2,64.3,6.4,57l0.1-1.7l0,0c0.3-15.4,7.8-30,20.3-39.3C39.4,6.5,56.9,3.8,72.2,9
		c8.2,2.8,15.5,7.6,21.2,14l0.4,0.4c0.3,0.3,0.5,0.6,0.8,0.9l0.2,0.2c0.2,0.2,0.3,0.4,0.5,0.6l0.6,0.7l5-3.9L100.3,21.4z"/>
	<g>
		<path class="st1" d="M35,98c1.6-1.9,3.6-2.8,6.1-2.8c1.5,0,2.7,0.3,3.7,1c1,0.7,2,1.8,3,3.5l1.6-0.4v-1c0-2.6-0.8-4.7-2.5-6.3
			c-1.7-1.6-3.9-2.4-6.5-2.4c-3.7,0-6.8,1.4-9.3,4.1c-1.1,1.2-1.9,2.5-2.6,3.9l5.1,2.9l0,0C33.9,99.5,34.4,98.7,35,98z"/>
		<path class="st1" d="M98.9,16.7c-1.8-1.2-4.1-1.9-7-1.9c-2.6,0-5,0.5-7.2,1.4c-2.2,0.9-4.7,2.5-7.5,4.7c-5.9-4-11.7-6-17.4-6
			c-3.7,0-7.4,0.8-10.9,2.3c-3.6,1.5-6.6,3.7-9.2,6.5c-4.4,4.7-6.7,10-6.7,15.9c0,4.7,1.4,8.9,4.3,12.8c2.8,3.9,6.8,7,12,9.3
			c-5.3,1.4-9,2.6-11,3.8c-3.9,2.4-5.9,5.8-5.9,10c0,4,1.8,7.4,5.5,10.2c3.5,2.7,8.2,4.1,14,4.1h14.1c6,0,10.7,1.2,13.9,3.5
			c3.3,2.3,4.9,5.7,4.9,10.1c0,5.4-2.4,9.9-7.3,13.3c-4.9,3.4-11.3,5.1-19.2,5.1c-7.5,0-13.6-1.5-18.4-4.6c-4.2-2.7-6.6-6-7.1-10v0
			l-5.5-2.9c0.1,4.8,1.8,8.8,5.1,12.1c5.4,5.2,14.5,7.8,27.5,7.8c12,0,21.1-2.2,27.4-6.7c6-4.3,9.1-10.3,9.1-18
			c0-7-2.6-12.4-7.8-16.2c-2.7-2-5.8-3.4-9.3-4.3c-3.6-0.9-7.9-1.4-13.1-1.4H51.3c-7.4,0-11.1-1.9-11.1-5.7c0-4.3,4.3-6.7,13-7.3
			c6.3-0.4,10.1-0.7,11.3-0.9c4-0.8,7.7-2.3,11.1-4.5C82.6,54.6,86,48.5,86,40.7c0-6.2-2.4-12.2-7.2-18.1c2.4-2.2,4.7-3.3,6.9-3.3
			c2.1,0,3.7,0.7,4.8,2.1l2,2.7c1.6,2,3.3,3,5.2,3c1.3,0,2.3-0.5,3.1-1.4c0.8-0.9,1.3-2.1,1.3-3.4C102.1,20.1,101,18.2,98.9,16.7z
			 M69.8,55.8c-2.4,4-5.7,6-9.9,6c-4.2,0-7.6-2-10.3-6c-2.7-4-4-9.2-4-15.6c0-3.1,0.4-6.1,1.1-9.2c0.8-3.1,1.8-5.7,3.1-7.8
			c2.6-4.3,6-6.4,10.3-6.4c3.5,0,6.4,1.6,8.7,4.9c3.1,4.4,4.6,10.2,4.6,17.5C73.3,46.3,72.2,51.8,69.8,55.8z"/>
	</g>
</g>
</svg>
