<?xml version="1.0" encoding="utf-8"?>
<!-- Generator: Adobe Illustrator 21.1.0, SVG Export Plug-In . SVG Version: 6.00 Build 0)  -->
<svg version="1.1" xmlns="http://www.w3.org/2000/svg" xmlns:xlink="http://www.w3.org/1999/xlink" x="0px" y="0px"
	 viewBox="0 0 90 216" style="enable-background:new 0 0 90 216;" xml:space="preserve">
<style type="text/css">
	.st0{clip-path:url(#SVGID_2_);}
	.st1{fill:#4361AA;}
	.st2{fill:#F37865;}
	.st3{fill:#FFFFFF;}
	.st4{fill:#99C3FF;}
	.st5{clip-path:url(#SVGID_2_);fill:none;stroke:#F37865;stroke-width:3;stroke-miterlimit:10;}
	.st6{fill:#F57B66;}
	.st7{fill:#E87970;}
</style>
<g id="Layer_1">
</g>
<g id="Layer_3">
	<g>
		<defs>
			<rect id="SVGID_1_" x="0" y="0" width="90.1" height="216"/>
		</defs>
		<clipPath id="SVGID_2_">
			<use xlink:href="#SVGID_1_"  style="overflow:visible;"/>
		</clipPath>
		<g class="st0">
			<g>
				<polygon class="st1" points="45,0 0,0 0,216 45,179.9 90.1,216 90.1,0 				"/>
			</g>
		</g>
		<g class="st0">
			<path class="st2" d="M13.2,14.3h-2.5l-0.5,1.5H9.1l2.4-6.4h1l2.4,6.4h-1.2L13.2,14.3z M11.1,13.4h1.9L12,10.7L11.1,13.4z"/>
			<path class="st2" d="M19.6,14.3l0.8-3.3h1l-1.3,4.8h-0.9l-1-3.3l-1,3.3h-0.9L15,11h1l0.8,3.2l1-3.2h0.8L19.6,14.3z"/>
			<path class="st2" d="M24.9,15.8c0-0.1-0.1-0.2-0.1-0.4c-0.3,0.4-0.8,0.5-1.2,0.5c-0.5,0-0.9-0.1-1.2-0.4s-0.5-0.6-0.5-1
				c0-0.5,0.2-0.9,0.6-1.2s0.9-0.4,1.6-0.4h0.7v-0.3c0-0.2-0.1-0.4-0.2-0.6s-0.3-0.2-0.6-0.2c-0.2,0-0.4,0.1-0.6,0.2
				c-0.2,0.1-0.2,0.3-0.2,0.5H22c0-0.3,0.1-0.5,0.3-0.7s0.4-0.4,0.7-0.5s0.6-0.2,1-0.2c0.6,0,1,0.1,1.3,0.4s0.5,0.7,0.5,1.2v2.1
				c0,0.4,0.1,0.8,0.2,1v0.1H24.9z M23.7,15c0.2,0,0.4-0.1,0.6-0.2c0.2-0.1,0.3-0.2,0.4-0.4v-0.9h-0.6c-0.4,0-0.7,0.1-0.9,0.2
				S23,14.1,23,14.3c0,0.2,0.1,0.4,0.2,0.5C23.3,14.9,23.5,15,23.7,15z"/>
			<path class="st2" d="M29.4,12c-0.1,0-0.3,0-0.4,0c-0.5,0-0.8,0.2-1,0.6v3.3h-1.1V11h1l0,0.5c0.3-0.4,0.6-0.6,1.1-0.6
				c0.2,0,0.3,0,0.4,0.1L29.4,12z"/>
			<path class="st2" d="M29.8,13.3c0-0.7,0.2-1.3,0.5-1.8c0.3-0.4,0.8-0.7,1.4-0.7c0.5,0,0.9,0.2,1.2,0.5V9H34v6.8h-1L33,15.3
				c-0.3,0.4-0.7,0.6-1.3,0.6c-0.6,0-1-0.2-1.4-0.7S29.8,14.1,29.8,13.3z M30.9,13.4c0,0.5,0.1,0.9,0.3,1.1c0.2,0.3,0.5,0.4,0.8,0.4
				c0.4,0,0.8-0.2,1-0.6v-2c-0.2-0.4-0.5-0.6-0.9-0.6c-0.3,0-0.6,0.1-0.8,0.4C31,12.5,30.9,12.9,30.9,13.4z"/>
			<path class="st2" d="M37.2,13.5h-2.3v-0.9h2.3V13.5z"/>
			<path class="st2" d="M42.2,14.3L43,11h1l-1.3,4.8h-0.9l-1-3.3l-1,3.3H39L37.7,11h1l0.8,3.2l1-3.2h0.8L42.2,14.3z"/>
			<path class="st2" d="M44.8,9.8c0-0.2,0.1-0.3,0.2-0.4c0.1-0.1,0.3-0.2,0.4-0.2s0.3,0.1,0.4,0.2S46,9.6,46,9.8
				c0,0.2-0.1,0.3-0.2,0.4c-0.1,0.1-0.3,0.2-0.4,0.2s-0.3-0.1-0.4-0.2C44.8,10.1,44.8,9.9,44.8,9.8z M45.9,15.8h-1.1V11h1.1V15.8z"
				/>
			<path class="st2" d="M48,11l0,0.5c0.4-0.4,0.8-0.6,1.4-0.6c1,0,1.5,0.6,1.5,1.7v3.1h-1.1v-3.1c0-0.3-0.1-0.5-0.2-0.7
				c-0.1-0.1-0.3-0.2-0.6-0.2c-0.4,0-0.8,0.2-1,0.6v3.4H47V11H48z"/>
			<path class="st2" d="M53,11l0,0.5c0.4-0.4,0.8-0.6,1.4-0.6c1,0,1.5,0.6,1.5,1.7v3.1h-1.1v-3.1c0-0.3-0.1-0.5-0.2-0.7
				c-0.1-0.1-0.3-0.2-0.6-0.2c-0.4,0-0.8,0.2-1,0.6v3.4H52V11H53z"/>
			<path class="st2" d="M57.1,9.8c0-0.2,0.1-0.3,0.2-0.4c0.1-0.1,0.3-0.2,0.4-0.2s0.3,0.1,0.4,0.2s0.2,0.2,0.2,0.4
				c0,0.2-0.1,0.3-0.2,0.4c-0.1,0.1-0.3,0.2-0.4,0.2s-0.3-0.1-0.4-0.2C57.1,10.1,57.1,9.9,57.1,9.8z M58.2,15.8h-1.1V11h1.1V15.8z"
				/>
			<path class="st2" d="M60.4,11l0,0.5c0.4-0.4,0.8-0.6,1.4-0.6c1,0,1.5,0.6,1.5,1.7v3.1h-1.1v-3.1c0-0.3-0.1-0.5-0.2-0.7
				c-0.1-0.1-0.3-0.2-0.6-0.2c-0.4,0-0.8,0.2-1,0.6v3.4h-1.1V11H60.4z"/>
			<path class="st2" d="M64.2,13.3c0-0.7,0.2-1.3,0.5-1.8c0.3-0.4,0.8-0.7,1.4-0.7c0.5,0,1,0.2,1.3,0.6l0-0.5h1v4.6
				c0,0.6-0.2,1.1-0.6,1.5c-0.4,0.4-0.9,0.5-1.6,0.5c-0.3,0-0.7-0.1-1-0.2c-0.3-0.1-0.6-0.3-0.8-0.6l0.5-0.6
				c0.3,0.4,0.7,0.6,1.2,0.6c0.4,0,0.6-0.1,0.8-0.3c0.2-0.2,0.3-0.5,0.3-0.8v-0.3c-0.3,0.3-0.7,0.5-1.2,0.5c-0.6,0-1-0.2-1.4-0.7
				C64.4,14.7,64.2,14.1,64.2,13.3z M65.2,13.4c0,0.5,0.1,0.9,0.3,1.1c0.2,0.3,0.5,0.4,0.8,0.4c0.4,0,0.7-0.2,1-0.6v-2.1
				c-0.2-0.4-0.5-0.5-0.9-0.5c-0.4,0-0.6,0.1-0.8,0.4C65.3,12.5,65.2,12.9,65.2,13.4z"/>
			<path class="st2" d="M13.7,24.2c0,0.7-0.2,1.3-0.5,1.8c-0.3,0.4-0.8,0.7-1.3,0.7c-0.5,0-0.9-0.2-1.3-0.5v2.3H9.5v-6.6h1l0,0.5
				c0.3-0.4,0.7-0.6,1.3-0.6c0.6,0,1,0.2,1.4,0.6C13.5,22.8,13.7,23.4,13.7,24.2L13.7,24.2z M12.6,24.1c0-0.5-0.1-0.9-0.3-1.1
				c-0.2-0.3-0.5-0.4-0.8-0.4c-0.4,0-0.8,0.2-0.9,0.5v2.1c0.2,0.4,0.5,0.6,0.9,0.6c0.3,0,0.6-0.1,0.8-0.4
				C12.6,25.1,12.6,24.7,12.6,24.1z"/>
			<path class="st2" d="M17.1,22.8c-0.1,0-0.3,0-0.4,0c-0.5,0-0.8,0.2-1,0.6v3.3h-1.1v-4.8h1l0,0.5c0.3-0.4,0.6-0.6,1.1-0.6
				c0.2,0,0.3,0,0.4,0.1L17.1,22.8z"/>
			<path class="st2" d="M17.4,24.1c0-0.5,0.1-0.9,0.3-1.3c0.2-0.4,0.4-0.7,0.8-0.9c0.3-0.2,0.7-0.3,1.2-0.3c0.6,0,1.2,0.2,1.6,0.6
				c0.4,0.4,0.6,1,0.6,1.6l0,0.3c0,0.5-0.1,0.9-0.3,1.3c-0.2,0.4-0.4,0.7-0.8,0.9c-0.3,0.2-0.7,0.3-1.2,0.3c-0.7,0-1.2-0.2-1.6-0.7
				S17.4,24.9,17.4,24.1L17.4,24.1z M18.5,24.2c0,0.5,0.1,0.9,0.3,1.1c0.2,0.3,0.5,0.4,0.8,0.4s0.6-0.1,0.8-0.4s0.3-0.7,0.3-1.2
				c0-0.5-0.1-0.9-0.3-1.1c-0.2-0.3-0.5-0.4-0.8-0.4c-0.3,0-0.6,0.1-0.8,0.4C18.6,23.3,18.5,23.7,18.5,24.2z"/>
			<path class="st2" d="M23.9,21.8V27c0,0.5-0.1,0.9-0.4,1.1c-0.2,0.3-0.6,0.4-1.1,0.4c-0.2,0-0.4,0-0.6-0.1v-0.8c0.1,0,0.2,0,0.4,0
				c0.4,0,0.5-0.2,0.5-0.6v-5.2H23.9z M22.7,20.6c0-0.2,0.1-0.3,0.2-0.4C23,20,23.1,20,23.3,20s0.3,0.1,0.4,0.2s0.2,0.2,0.2,0.4
				c0,0.2-0.1,0.3-0.2,0.4c-0.1,0.1-0.3,0.2-0.4,0.2S23,21.1,22.9,21C22.7,20.9,22.7,20.7,22.7,20.6z"/>
			<path class="st2" d="M27.1,26.6c-0.7,0-1.2-0.2-1.6-0.6c-0.4-0.4-0.6-1-0.6-1.7v-0.1c0-0.5,0.1-0.9,0.3-1.3
				c0.2-0.4,0.4-0.7,0.8-0.9s0.7-0.3,1.1-0.3c0.6,0,1.1,0.2,1.5,0.6s0.5,1,0.5,1.8v0.4h-3.1c0,0.4,0.2,0.7,0.4,0.9
				c0.2,0.2,0.5,0.3,0.9,0.3c0.5,0,0.9-0.2,1.2-0.6l0.6,0.5c-0.2,0.3-0.4,0.5-0.8,0.7C27.8,26.6,27.5,26.6,27.1,26.6z M27,22.6
				c-0.3,0-0.5,0.1-0.7,0.3c-0.2,0.2-0.3,0.5-0.3,0.9h2v-0.1c0-0.4-0.1-0.6-0.3-0.8S27.3,22.6,27,22.6z"/>
			<path class="st2" d="M31.8,25.8c0.3,0,0.5-0.1,0.7-0.2s0.3-0.3,0.3-0.6h1c0,0.3-0.1,0.6-0.3,0.8c-0.2,0.3-0.4,0.5-0.7,0.6
				s-0.6,0.2-1,0.2c-0.7,0-1.2-0.2-1.6-0.6s-0.6-1-0.6-1.8v-0.1c0-0.7,0.2-1.3,0.6-1.7c0.4-0.4,0.9-0.7,1.6-0.7c0.6,0,1,0.2,1.4,0.5
				c0.4,0.3,0.5,0.8,0.6,1.3h-1c0-0.3-0.1-0.5-0.3-0.7s-0.4-0.3-0.7-0.3c-0.3,0-0.6,0.1-0.8,0.4c-0.2,0.3-0.3,0.6-0.3,1.1v0.2
				c0,0.5,0.1,0.9,0.3,1.2C31.2,25.7,31.4,25.8,31.8,25.8z"/>
			<path class="st2" d="M35.9,20.6v1.2h0.8v0.8h-0.8v2.7c0,0.2,0,0.3,0.1,0.4c0.1,0.1,0.2,0.1,0.4,0.1c0.1,0,0.2,0,0.4,0v0.8
				c-0.2,0.1-0.5,0.1-0.7,0.1c-0.8,0-1.2-0.5-1.2-1.4v-2.7H34v-0.8h0.8v-1.2H35.9z"/>
			<path class="st2" d="M40.1,26.5v-4h-0.7v-0.8h0.7v-0.4c0-0.5,0.1-0.9,0.4-1.2s0.7-0.4,1.2-0.4c0.2,0,0.4,0,0.6,0.1l0,0.8
				c-0.1,0-0.3,0-0.4,0c-0.5,0-0.8,0.3-0.8,0.8v0.4h1v0.8h-1v4H40.1z"/>
			<path class="st2" d="M42.8,24.1c0-0.5,0.1-0.9,0.3-1.3c0.2-0.4,0.4-0.7,0.8-0.9c0.3-0.2,0.7-0.3,1.2-0.3c0.6,0,1.2,0.2,1.6,0.6
				c0.4,0.4,0.6,1,0.6,1.6l0,0.3c0,0.5-0.1,0.9-0.3,1.3c-0.2,0.4-0.4,0.7-0.8,0.9c-0.3,0.2-0.7,0.3-1.2,0.3c-0.7,0-1.2-0.2-1.6-0.7
				S42.8,24.9,42.8,24.1L42.8,24.1z M43.8,24.2c0,0.5,0.1,0.9,0.3,1.1c0.2,0.3,0.5,0.4,0.8,0.4c0.4,0,0.6-0.1,0.8-0.4
				c0.2-0.3,0.3-0.7,0.3-1.2c0-0.5-0.1-0.9-0.3-1.1c-0.2-0.3-0.5-0.4-0.8-0.4c-0.3,0-0.6,0.1-0.8,0.4C43.9,23.3,43.8,23.7,43.8,24.2
				z"/>
			<path class="st2" d="M50.6,22.8c-0.1,0-0.3,0-0.4,0c-0.5,0-0.8,0.2-1,0.6v3.3h-1.1v-4.8h1l0,0.5c0.3-0.4,0.6-0.6,1.1-0.6
				c0.2,0,0.3,0,0.4,0.1L50.6,22.8z"/>
		</g>
		<g class="st0">
			<path class="st3" d="M9.7,46.3l0.9-1.2c0.8,0.5,1.2,0.6,1.6,0.6c0.6,0,0.9-0.2,0.9-0.7c0-1.2-3.3-0.9-3.3-3.3
				c0-1.7,1.3-2.2,2.3-2.2c0.9,0,1.3,0.1,2.4,0.9l-0.9,1.2C13,41.1,12.6,41,12.2,41c-0.4,0-0.7,0.2-0.7,0.7c0,0.4,0.6,0.6,1,0.8
				c1.1,0.4,2.2,1,2.2,2.5c0,1.7-1.2,2.2-2.5,2.2C11.4,47.2,10.8,47.1,9.7,46.3z"/>
			<path class="st3" d="M15.5,43.3c0-2.1,1.7-3.8,3.9-3.8c2.1,0,3.8,1.8,3.8,3.8c0,2.1-1.7,3.9-3.8,3.9
				C17.3,47.2,15.5,45.5,15.5,43.3z M17.2,43.3c0,1.2,1,2.3,2.2,2.3c1.2,0,2.2-1.1,2.2-2.3c0-1.2-0.9-2.3-2.2-2.3
				C18.1,41,17.2,42.1,17.2,43.3z"/>
			<path class="st3" d="M24.2,43.3c0-2.1,1.8-3.9,3.9-3.9c0.8,0,1.7,0.3,2.7,0.9L30,41.7c-0.7-0.5-1.3-0.7-1.9-0.7
				c-1.2,0-2.2,1.1-2.2,2.3s1,2.3,2.2,2.3c0.6,0,1.3-0.2,2-0.8l0.8,1.2c-0.9,0.7-2,1.1-2.9,1.1C26,47.2,24.2,45.4,24.2,43.3z"/>
			<path class="st3" d="M33.8,39.6v7.5h-1.6v-7.5H33.8z"/>
			<path class="st3" d="M36.3,47.1h-1.8l3.7-7.7l3.7,7.7h-1.8l-0.6-1.4h-2.7L36.3,47.1z M37.6,44.2H39l-0.7-1.6L37.6,44.2z"/>
			<path class="st3" d="M42.8,47.1v-7.5h1.6v6h3.2v1.5H42.8z"/>
			<path class="st3" d="M14.2,56.1h-2.7v1.5h3.1v1.5H9.9v-7.5h4.7v1.5h-3.1v1.5h2.7V56.1z"/>
			<path class="st3" d="M17.5,55v4h-1.6v-7.7l4.8,4.3v-4.1h1.6v7.8L17.5,55z"/>
			<path class="st3" d="M23.6,55.3c0-2.2,1.6-3.9,3.9-3.9c0.8,0,1.7,0.2,2.7,0.9l-0.8,1.3C28.6,53.2,28,53,27.4,53
				c-1.3,0-2.2,1-2.2,2.3c0,1.3,0.9,2.3,2.2,2.3c0.4,0,0.8-0.1,1.2-0.3v-0.8h-1.3v-1.5h2.9v3.1c-0.8,0.6-1.8,1-2.8,1
				C25.2,59.2,23.6,57.5,23.6,55.3z"/>
			<path class="st3" d="M32.7,59.1h-1.8l3.7-7.7l3.7,7.7h-1.8L36,57.7h-2.7L32.7,59.1z M33.9,56.2h1.4l-0.7-1.6L33.9,56.2z"/>
			<path class="st3" d="M38.5,55.3c0-2.2,1.6-3.9,3.9-3.9c0.8,0,1.7,0.2,2.7,0.9l-0.8,1.3c-0.7-0.5-1.3-0.6-1.9-0.6
				c-1.3,0-2.2,1-2.2,2.3c0,1.3,0.9,2.3,2.2,2.3c0.4,0,0.8-0.1,1.2-0.3v-0.8h-1.3v-1.5h2.9v3.1c-0.8,0.6-1.8,1-2.8,1
				C40,59.2,38.5,57.5,38.5,55.3z"/>
			<path class="st3" d="M50.7,56.1H48v1.5h3.1v1.5h-4.8v-7.5h4.7v1.5H48v1.5h2.7V56.1z"/>
			<path class="st3" d="M57.5,55l-1.7,1.7L54,55v4.1h-1.6v-7.7l3.4,3.1l3.4-3.1v7.7h-1.6V55z"/>
			<path class="st3" d="M64.8,56.1h-2.7v1.5h3.1v1.5h-4.8v-7.5h4.7v1.5h-3.1v1.5h2.7V56.1z"/>
			<path class="st3" d="M68.2,55v4h-1.6v-7.7l4.8,4.3v-4.1H73v7.8L68.2,55z"/>
			<path class="st3" d="M80.3,53.1H78v6h-1.6v-6H74v-1.5h6.3V53.1z"/>
		</g>
		<g class="st0">
			<path class="st4" d="M13.9,127l-1.4,1.4l-1.4-1.4v3.3H9.7V124l2.8,2.5l2.8-2.5v6.3h-1.4V127z"/>
			<path class="st4" d="M17.4,130.3h-1.4L19,124l3,6.3h-1.4l-0.5-1.2h-2.2L17.4,130.3z M18.4,127.9h1.1l-0.6-1.3L18.4,127.9z"/>
			<path class="st4" d="M24.8,130.3h-1.4v-2.6l-2.3-3.5h1.5l1.5,2.3l1.5-2.3h1.5l-2.3,3.5V130.3z"/>
			<path class="st4" d="M29.5,127.2c0-1.7,1.4-3.2,3.2-3.2c0.7,0,1.4,0.2,2.2,0.8l-0.7,1c-0.6-0.4-1.1-0.5-1.6-0.5
				c-1,0-1.8,0.9-1.8,1.9s0.8,1.9,1.8,1.9c0.5,0,1-0.2,1.7-0.6l0.7,1c-0.8,0.6-1.6,0.9-2.3,0.9C30.9,130.4,29.5,129,29.5,127.2z"/>
			<path class="st4" d="M35.7,127.2c0-1.7,1.4-3.1,3.2-3.1c1.7,0,3.1,1.4,3.1,3.1c0,1.8-1.4,3.2-3.1,3.2
				C37.1,130.4,35.7,129,35.7,127.2z M37,127.2c0,1,0.8,1.9,1.8,1.9c1,0,1.8-0.9,1.8-1.9c0-1-0.8-1.9-1.8-1.9
				C37.8,125.3,37,126.2,37,127.2z"/>
			<path class="st4" d="M44.3,127v3.3H43V124l3.9,3.6v-3.4h1.4v6.4L44.3,127z"/>
			<path class="st4" d="M54.3,125.4h-1.9v4.9H51v-4.9h-1.9v-1.2h5.2V125.4z"/>
			<path class="st4" d="M54.9,130.3h-1.4l3.1-6.3l3,6.3h-1.4l-0.5-1.2h-2.2L54.9,130.3z M55.9,127.9H57l-0.6-1.3L55.9,127.9z"/>
			<path class="st4" d="M61.5,124.2v6.2h-1.4v-6.2H61.5z"/>
			<path class="st4" d="M64,127v3.3h-1.4V124l3.9,3.6v-3.4h1.4v6.4L64,127z"/>
			<path class="st4" d="M71.3,130.3h-1l2.3-6.2h1L71.3,130.3z"/>
			<path class="st4" d="M9.7,140.3v-6.2h2.1c1.2,0,2.2,0.6,2.2,1.9c0,1.2-1,1.9-2.1,1.9h-0.8v2.4H9.7z M11.8,136.7
				c0.4,0,0.8-0.2,0.8-0.7c0-0.4-0.4-0.6-0.8-0.6h-0.7v1.3H11.8z"/>
			<path class="st4" d="M18.4,137.9h-2.2v1.2h2.6v1.2h-3.9v-6.2h3.9v1.2h-2.5v1.2h2.2V137.9z"/>
			<path class="st4" d="M19.8,137.9v-3.7h1.4v3.6c0,0.7,0.5,1.4,1.2,1.4c0.7,0,1.2-0.7,1.2-1.4v-3.6H25v3.7c0,1.4-1.2,2.6-2.6,2.6
				C21.1,140.4,19.8,139.2,19.8,137.9z"/>
			<path class="st4" d="M31,135.4h-1.9v4.9h-1.4v-4.9h-1.9v-1.2H31V135.4z"/>
			<path class="st4" d="M33.6,137.2c0-1.7,1.4-3.2,3.2-3.2c0.7,0,1.4,0.2,2.2,0.8l-0.7,1c-0.6-0.4-1.1-0.5-1.6-0.5
				c-1,0-1.8,0.9-1.8,1.9s0.8,1.9,1.8,1.9c0.5,0,1-0.2,1.7-0.6l0.7,1c-0.8,0.6-1.6,0.9-2.3,0.9C35,140.4,33.6,139,33.6,137.2z"/>
			<path class="st4" d="M39.7,137.2c0-1.7,1.4-3.1,3.2-3.1c1.7,0,3.1,1.4,3.1,3.1c0,1.8-1.4,3.2-3.1,3.2
				C41.2,140.4,39.7,139,39.7,137.2z M41.1,137.2c0,1,0.8,1.9,1.8,1.9c1,0,1.8-0.9,1.8-1.9c0-1-0.8-1.9-1.8-1.9
				C41.9,135.3,41.1,136.2,41.1,137.2z"/>
			<path class="st4" d="M48.4,137v3.3H47V134l3.9,3.6v-3.4h1.4v6.4L48.4,137z"/>
			<path class="st4" d="M58.3,135.4h-1.9v4.9H55v-4.9h-1.9v-1.2h5.2V135.4z"/>
			<path class="st4" d="M62.7,137.9h-2.2v1.2h2.6v1.2h-3.9v-6.2H63v1.2h-2.5v1.2h2.2V137.9z"/>
			<path class="st4" d="M65.4,137v3.3h-1.4V134l3.9,3.6v-3.4h1.4v6.4L65.4,137z"/>
			<path class="st4" d="M71.8,134.2v6.2h-1.4v-6.2H71.8z"/>
			<path class="st4" d="M74.3,140.3h-1.4v-6.2h2c1.2,0,2.2,0.6,2.2,1.9c0,0.8-0.5,1.4-1.1,1.7l1.6,2.6h-1.5l-1.4-2.4h-0.4V140.3z
				 M74.3,136.7H75c0.4,0,0.8-0.2,0.8-0.7c0-0.4-0.4-0.6-0.8-0.6h-0.7V136.7z"/>
		</g>
		<g class="st0">
			<path class="st4" d="M13.5,152.1H9.9v-0.6l1.8-1.9c0.3-0.3,0.4-0.5,0.5-0.7c0.1-0.2,0.2-0.4,0.2-0.6c0-0.3-0.1-0.5-0.2-0.6
				c-0.1-0.2-0.3-0.2-0.6-0.2c-0.3,0-0.5,0.1-0.7,0.3c-0.2,0.2-0.2,0.4-0.2,0.7H9.8c0-0.3,0.1-0.6,0.2-0.9c0.1-0.3,0.4-0.5,0.6-0.6
				c0.3-0.1,0.6-0.2,1-0.2c0.5,0,0.9,0.1,1.2,0.4c0.3,0.3,0.4,0.6,0.4,1.1c0,0.3-0.1,0.5-0.2,0.8c-0.1,0.3-0.4,0.6-0.7,1l-1.3,1.4
				h2.5V152.1z"/>
			<path class="st4" d="M17.6,149.9c0,0.8-0.1,1.3-0.4,1.7c-0.3,0.4-0.7,0.6-1.3,0.6c-0.6,0-1-0.2-1.3-0.6c-0.3-0.4-0.4-0.9-0.4-1.7
				V149c0-0.8,0.1-1.3,0.4-1.7c0.3-0.4,0.7-0.6,1.3-0.6c0.6,0,1,0.2,1.3,0.6c0.3,0.4,0.4,0.9,0.4,1.7V149.9z M16.7,148.9
				c0-0.5-0.1-0.9-0.2-1.1c-0.1-0.2-0.4-0.3-0.7-0.3c-0.3,0-0.5,0.1-0.6,0.3s-0.2,0.6-0.2,1v1.2c0,0.5,0.1,0.9,0.2,1.1
				s0.4,0.4,0.7,0.4c0.3,0,0.5-0.1,0.6-0.3c0.1-0.2,0.2-0.6,0.2-1.1V148.9z"/>
			<path class="st4" d="M20.8,152.1h-0.9v-4.3l-1.3,0.4v-0.7l2.1-0.8h0.1V152.1z"/>
			<path class="st4" d="M26.2,147.3l-2.1,4.8h-0.9l2.1-4.6h-2.8v-0.7h3.7V147.3z"/>
			<path class="st4" d="M29,152.1v-5.3h1.6c0.5,0,0.9,0.1,1.3,0.3c0.4,0.2,0.6,0.5,0.8,0.9c0.2,0.4,0.3,0.8,0.3,1.3v0.3
				c0,0.5-0.1,1-0.3,1.3c-0.2,0.4-0.5,0.7-0.9,0.9c-0.4,0.2-0.8,0.3-1.3,0.3H29z M29.9,147.5v3.8h0.6c0.5,0,0.9-0.2,1.1-0.5
				c0.3-0.3,0.4-0.7,0.4-1.3v-0.3c0-0.6-0.1-1-0.4-1.3c-0.3-0.3-0.6-0.5-1.1-0.5H29.9z"/>
			<path class="st4" d="M35.5,152.2c-0.6,0-1-0.2-1.4-0.5c-0.4-0.4-0.5-0.8-0.5-1.4v-0.1c0-0.4,0.1-0.7,0.2-1.1
				c0.2-0.3,0.4-0.6,0.6-0.7c0.3-0.2,0.6-0.3,0.9-0.3c0.5,0,1,0.2,1.3,0.5c0.3,0.3,0.4,0.8,0.4,1.5v0.4h-2.6c0,0.3,0.1,0.6,0.3,0.8
				c0.2,0.2,0.4,0.3,0.7,0.3c0.4,0,0.7-0.2,1-0.5l0.5,0.5c-0.2,0.2-0.4,0.4-0.6,0.6C36.1,152.1,35.8,152.2,35.5,152.2z M35.4,148.8
				c-0.2,0-0.4,0.1-0.6,0.3c-0.2,0.2-0.2,0.4-0.3,0.7h1.7v-0.1c0-0.3-0.1-0.5-0.2-0.7C35.9,148.9,35.7,148.8,35.4,148.8z"/>
			<path class="st4" d="M40,151c0-0.2-0.1-0.3-0.2-0.4c-0.1-0.1-0.3-0.2-0.6-0.2s-0.6-0.1-0.8-0.2c-0.4-0.2-0.7-0.5-0.7-0.9
				c0-0.3,0.1-0.6,0.4-0.9c0.3-0.2,0.7-0.3,1.1-0.3c0.5,0,0.9,0.1,1.1,0.4c0.3,0.2,0.4,0.5,0.4,0.9H40c0-0.2-0.1-0.3-0.2-0.4
				s-0.3-0.2-0.5-0.2c-0.2,0-0.4,0-0.5,0.1c-0.1,0.1-0.2,0.2-0.2,0.4c0,0.1,0.1,0.2,0.2,0.3c0.1,0.1,0.3,0.2,0.7,0.2
				c0.3,0.1,0.6,0.2,0.8,0.3c0.2,0.1,0.3,0.2,0.4,0.4c0.1,0.1,0.1,0.3,0.1,0.5c0,0.4-0.1,0.6-0.4,0.9c-0.3,0.2-0.7,0.3-1.2,0.3
				c-0.3,0-0.6-0.1-0.9-0.2s-0.5-0.3-0.6-0.5c-0.1-0.2-0.2-0.4-0.2-0.7h0.9c0,0.2,0.1,0.4,0.2,0.5s0.3,0.2,0.6,0.2
				c0.2,0,0.4,0,0.5-0.1C40,151.3,40,151.2,40,151z"/>
			<path class="st4" d="M41.7,147.1c0-0.1,0-0.3,0.1-0.3c0.1-0.1,0.2-0.1,0.4-0.1s0.3,0,0.4,0.1s0.1,0.2,0.1,0.3
				c0,0.1,0,0.2-0.1,0.3c-0.1,0.1-0.2,0.1-0.4,0.1s-0.3,0-0.4-0.1C41.7,147.4,41.7,147.3,41.7,147.1z M42.6,152.1h-0.9v-4h0.9V152.1
				z"/>
			<path class="st4" d="M43.4,150.1c0-0.6,0.1-1.1,0.4-1.5c0.3-0.4,0.7-0.6,1.2-0.6c0.5,0,0.8,0.2,1.1,0.5l0-0.4h0.8v3.8
				c0,0.5-0.2,0.9-0.5,1.2c-0.3,0.3-0.8,0.5-1.3,0.5c-0.3,0-0.6-0.1-0.9-0.2c-0.3-0.1-0.5-0.3-0.6-0.5l0.4-0.5
				c0.3,0.3,0.6,0.5,1,0.5c0.3,0,0.5-0.1,0.7-0.2s0.3-0.4,0.3-0.7v-0.3c-0.3,0.3-0.6,0.4-1,0.4c-0.5,0-0.8-0.2-1.1-0.6
				C43.6,151.3,43.4,150.8,43.4,150.1z M44.3,150.2c0,0.4,0.1,0.7,0.2,0.9c0.2,0.2,0.4,0.3,0.7,0.3c0.4,0,0.6-0.2,0.8-0.5v-1.7
				c-0.2-0.3-0.4-0.5-0.8-0.5c-0.3,0-0.5,0.1-0.7,0.3C44.4,149.4,44.3,149.7,44.3,150.2z"/>
			<path class="st4" d="M48.7,148.2l0,0.5c0.3-0.4,0.7-0.5,1.2-0.5c0.8,0,1.2,0.5,1.3,1.4v2.6h-0.9v-2.6c0-0.3-0.1-0.4-0.2-0.6
				c-0.1-0.1-0.3-0.2-0.5-0.2c-0.4,0-0.6,0.2-0.8,0.5v2.8h-0.9v-4H48.7z"/>
			<path class="st4" d="M56.2,152.1c0-0.1-0.1-0.2-0.1-0.4c-0.3,0.3-0.6,0.4-1,0.4c-0.4,0-0.7-0.1-1-0.3c-0.3-0.2-0.4-0.5-0.4-0.8
				c0-0.4,0.2-0.7,0.5-1c0.3-0.2,0.8-0.3,1.3-0.3h0.5v-0.3c0-0.2-0.1-0.4-0.2-0.5c-0.1-0.1-0.3-0.2-0.5-0.2c-0.2,0-0.4,0.1-0.5,0.2
				c-0.1,0.1-0.2,0.2-0.2,0.4h-0.9c0-0.2,0.1-0.4,0.2-0.6c0.1-0.2,0.3-0.3,0.6-0.4s0.5-0.2,0.8-0.2c0.5,0,0.8,0.1,1.1,0.3
				c0.3,0.2,0.4,0.6,0.4,1v1.8c0,0.4,0,0.6,0.1,0.9v0.1H56.2z M55.3,151.5c0.2,0,0.3,0,0.5-0.1c0.2-0.1,0.3-0.2,0.3-0.3v-0.7h-0.5
				c-0.3,0-0.6,0.1-0.7,0.2c-0.2,0.1-0.2,0.3-0.2,0.5c0,0.2,0.1,0.3,0.2,0.4S55.1,151.5,55.3,151.5z"/>
			<path class="st4" d="M58.8,148.2l0,0.5c0.3-0.4,0.7-0.5,1.2-0.5c0.8,0,1.2,0.5,1.3,1.4v2.6h-0.9v-2.6c0-0.3-0.1-0.4-0.2-0.6
				c-0.1-0.1-0.3-0.2-0.5-0.2c-0.4,0-0.6,0.2-0.8,0.5v2.8h-0.9v-4H58.8z"/>
			<path class="st4" d="M61.9,150.1c0-0.6,0.1-1.1,0.4-1.5c0.3-0.4,0.7-0.6,1.1-0.6c0.4,0,0.8,0.1,1,0.4v-2h0.9v5.6h-0.8l0-0.4
				c-0.3,0.3-0.6,0.5-1.1,0.5c-0.5,0-0.8-0.2-1.1-0.6C62.1,151.3,61.9,150.8,61.9,150.1z M62.8,150.2c0,0.4,0.1,0.7,0.2,0.9
				c0.2,0.2,0.4,0.3,0.7,0.3c0.4,0,0.6-0.2,0.8-0.5v-1.7c-0.2-0.3-0.4-0.5-0.8-0.5c-0.3,0-0.5,0.1-0.7,0.3
				C62.9,149.4,62.8,149.7,62.8,150.2z"/>
			<path class="st4" d="M14.1,159.4c-0.1,0.6-0.3,1-0.6,1.3s-0.9,0.5-1.5,0.5c-0.4,0-0.8-0.1-1.1-0.3c-0.3-0.2-0.6-0.5-0.7-0.9
				s-0.3-0.8-0.3-1.3v-0.5c0-0.5,0.1-0.9,0.3-1.3c0.2-0.4,0.4-0.7,0.8-0.9c0.3-0.2,0.7-0.3,1.2-0.3c0.6,0,1.1,0.2,1.4,0.5
				s0.6,0.8,0.6,1.4h-0.9c0-0.4-0.2-0.7-0.3-0.8c-0.2-0.2-0.4-0.3-0.8-0.3c-0.4,0-0.7,0.1-0.9,0.4c-0.2,0.3-0.3,0.7-0.3,1.3v0.5
				c0,0.6,0.1,1,0.3,1.3c0.2,0.3,0.5,0.5,0.9,0.5c0.4,0,0.6-0.1,0.8-0.2s0.3-0.4,0.3-0.8H14.1z"/>
			<path class="st4" d="M14.7,159.1c0-0.4,0.1-0.7,0.2-1c0.2-0.3,0.4-0.6,0.6-0.7c0.3-0.2,0.6-0.3,1-0.3c0.5,0,1,0.2,1.3,0.5
				c0.3,0.3,0.5,0.8,0.5,1.4l0,0.2c0,0.4-0.1,0.7-0.2,1c-0.1,0.3-0.4,0.5-0.6,0.7c-0.3,0.2-0.6,0.3-1,0.3c-0.6,0-1-0.2-1.3-0.6
				C14.9,160.3,14.7,159.8,14.7,159.1L14.7,159.1z M15.6,159.2c0,0.4,0.1,0.7,0.3,1c0.2,0.2,0.4,0.3,0.7,0.3c0.3,0,0.5-0.1,0.7-0.4
				c0.2-0.2,0.3-0.6,0.3-1c0-0.4-0.1-0.7-0.3-1c-0.2-0.2-0.4-0.4-0.7-0.4c-0.3,0-0.5,0.1-0.7,0.3C15.7,158.4,15.6,158.7,15.6,159.2z
				"/>
			<path class="st4" d="M20,157.2l0,0.4c0.3-0.3,0.7-0.5,1.1-0.5c0.5,0,0.9,0.2,1.1,0.6c0.3-0.4,0.7-0.6,1.2-0.6
				c0.4,0,0.8,0.1,1,0.4c0.2,0.2,0.3,0.6,0.3,1.1v2.6h-0.9v-2.6c0-0.3-0.1-0.4-0.2-0.6c-0.1-0.1-0.3-0.2-0.5-0.2
				c-0.2,0-0.4,0.1-0.5,0.2c-0.1,0.1-0.2,0.3-0.3,0.4l0,2.7h-0.9v-2.6c0-0.5-0.3-0.7-0.7-0.7c-0.4,0-0.6,0.1-0.8,0.4v2.9h-0.9v-4H20
				z"/>
			<path class="st4" d="M29.1,159.2c0,0.6-0.1,1.1-0.4,1.5s-0.7,0.5-1.1,0.5c-0.4,0-0.8-0.1-1-0.4v1.9h-0.9v-5.5h0.8l0,0.4
				c0.3-0.3,0.6-0.5,1.1-0.5c0.5,0,0.9,0.2,1.1,0.5C29,158,29.1,158.5,29.1,159.2L29.1,159.2z M28.2,159.1c0-0.4-0.1-0.7-0.2-0.9
				c-0.2-0.2-0.4-0.3-0.7-0.3c-0.4,0-0.6,0.2-0.8,0.5v1.8c0.2,0.3,0.4,0.5,0.8,0.5c0.3,0,0.5-0.1,0.7-0.3
				C28.2,159.9,28.2,159.6,28.2,159.1z"/>
			<path class="st4" d="M32.3,160.7c-0.3,0.3-0.6,0.5-1.1,0.5c-0.4,0-0.8-0.1-1-0.4c-0.2-0.3-0.3-0.6-0.3-1.1v-2.6h0.9v2.6
				c0,0.5,0.2,0.8,0.6,0.8c0.4,0,0.7-0.2,0.9-0.5v-2.8h0.9v4h-0.8L32.3,160.7z"/>
			<path class="st4" d="M35.2,156.2v1h0.7v0.7h-0.7v2.2c0,0.2,0,0.3,0.1,0.3c0.1,0.1,0.2,0.1,0.3,0.1c0.1,0,0.2,0,0.3,0v0.7
				c-0.2,0.1-0.4,0.1-0.6,0.1c-0.7,0-1-0.4-1-1.1v-2.2h-0.7v-0.7h0.7v-1H35.2z"/>
			<path class="st4" d="M38.9,161.1c0-0.1-0.1-0.2-0.1-0.4c-0.3,0.3-0.6,0.4-1,0.4c-0.4,0-0.7-0.1-1-0.3c-0.3-0.2-0.4-0.5-0.4-0.8
				c0-0.4,0.2-0.7,0.5-1c0.3-0.2,0.8-0.3,1.3-0.3h0.5v-0.3c0-0.2-0.1-0.4-0.2-0.5c-0.1-0.1-0.3-0.2-0.5-0.2c-0.2,0-0.4,0.1-0.5,0.2
				c-0.1,0.1-0.2,0.2-0.2,0.4h-0.9c0-0.2,0.1-0.4,0.2-0.6s0.3-0.3,0.6-0.4c0.2-0.1,0.5-0.2,0.8-0.2c0.5,0,0.8,0.1,1.1,0.3
				c0.3,0.2,0.4,0.6,0.4,1v1.8c0,0.4,0,0.6,0.1,0.9v0.1H38.9z M37.9,160.5c0.2,0,0.3,0,0.5-0.1c0.2-0.1,0.3-0.2,0.3-0.3v-0.7h-0.5
				c-0.3,0-0.6,0.1-0.7,0.2c-0.2,0.1-0.2,0.3-0.2,0.5c0,0.2,0.1,0.3,0.2,0.4C37.6,160.4,37.7,160.5,37.9,160.5z"/>
			<path class="st4" d="M41.7,156.2v1h0.7v0.7h-0.7v2.2c0,0.2,0,0.3,0.1,0.3c0.1,0.1,0.2,0.1,0.3,0.1c0.1,0,0.2,0,0.3,0v0.7
				c-0.2,0.1-0.4,0.1-0.6,0.1c-0.7,0-1-0.4-1-1.1v-2.2h-0.7v-0.7h0.7v-1H41.7z"/>
			<path class="st4" d="M43.1,156.1c0-0.1,0-0.3,0.1-0.3c0.1-0.1,0.2-0.1,0.4-0.1s0.3,0,0.4,0.1s0.1,0.2,0.1,0.3
				c0,0.1,0,0.2-0.1,0.3c-0.1,0.1-0.2,0.1-0.4,0.1s-0.3,0-0.4-0.1C43.1,156.4,43.1,156.3,43.1,156.1z M44,161.1h-0.9v-4H44V161.1z"
				/>
			<path class="st4" d="M44.8,159.1c0-0.4,0.1-0.7,0.2-1c0.2-0.3,0.4-0.6,0.6-0.7c0.3-0.2,0.6-0.3,1-0.3c0.5,0,1,0.2,1.3,0.5
				c0.3,0.3,0.5,0.8,0.5,1.4l0,0.2c0,0.4-0.1,0.7-0.2,1s-0.4,0.5-0.6,0.7c-0.3,0.2-0.6,0.3-1,0.3c-0.6,0-1-0.2-1.3-0.6
				S44.8,159.8,44.8,159.1L44.8,159.1z M45.7,159.2c0,0.4,0.1,0.7,0.3,1c0.2,0.2,0.4,0.3,0.7,0.3c0.3,0,0.5-0.1,0.7-0.4
				c0.2-0.2,0.3-0.6,0.3-1c0-0.4-0.1-0.7-0.3-1s-0.4-0.4-0.7-0.4c-0.3,0-0.5,0.1-0.7,0.3C45.8,158.4,45.7,158.7,45.7,159.2z"/>
			<path class="st4" d="M50.1,157.2l0,0.5c0.3-0.4,0.7-0.5,1.2-0.5c0.8,0,1.2,0.5,1.3,1.4v2.6h-0.9v-2.6c0-0.3-0.1-0.4-0.2-0.6
				c-0.1-0.1-0.3-0.2-0.5-0.2c-0.4,0-0.6,0.2-0.8,0.5v2.8h-0.9v-4H50.1z"/>
			<path class="st4" d="M58.4,159.9h-2.1l-0.4,1.2h-1l2-5.3h0.8l2,5.3h-1L58.4,159.9z M56.6,159.1h1.5l-0.8-2.2L56.6,159.1z"/>
			<path class="st4" d="M62.4,158c-0.1,0-0.2,0-0.4,0c-0.4,0-0.7,0.2-0.8,0.5v2.7h-0.9v-4h0.8l0,0.4c0.2-0.3,0.5-0.5,0.9-0.5
				c0.1,0,0.2,0,0.3,0.1L62.4,158z"/>
			<path class="st4" d="M64.2,156.2v1h0.7v0.7h-0.7v2.2c0,0.2,0,0.3,0.1,0.3c0.1,0.1,0.2,0.1,0.3,0.1c0.1,0,0.2,0,0.3,0v0.7
				c-0.2,0.1-0.4,0.1-0.6,0.1c-0.7,0-1-0.4-1-1.1v-2.2h-0.7v-0.7h0.7v-1H64.2z"/>
			<path class="st4" d="M67.8,160c0-0.2-0.1-0.3-0.2-0.4c-0.1-0.1-0.3-0.2-0.7-0.2s-0.6-0.1-0.8-0.2c-0.4-0.2-0.7-0.5-0.7-0.9
				c0-0.3,0.1-0.6,0.4-0.9s0.7-0.3,1.1-0.3c0.5,0,0.9,0.1,1.1,0.4c0.3,0.2,0.4,0.5,0.4,0.9h-0.9c0-0.2-0.1-0.3-0.2-0.4
				s-0.3-0.2-0.5-0.2c-0.2,0-0.4,0-0.5,0.1c-0.1,0.1-0.2,0.2-0.2,0.4c0,0.1,0.1,0.2,0.2,0.3c0.1,0.1,0.3,0.2,0.7,0.2
				c0.3,0.1,0.6,0.2,0.8,0.3c0.2,0.1,0.3,0.2,0.4,0.4c0.1,0.1,0.1,0.3,0.1,0.5c0,0.4-0.1,0.6-0.4,0.9c-0.3,0.2-0.7,0.3-1.2,0.3
				c-0.3,0-0.6-0.1-0.9-0.2s-0.5-0.3-0.6-0.5s-0.2-0.4-0.2-0.7h0.9c0,0.2,0.1,0.4,0.2,0.5s0.3,0.2,0.6,0.2c0.2,0,0.4,0,0.5-0.1
				C67.8,160.3,67.8,160.2,67.8,160z"/>
			<path class="st4" d="M13.2,167.7H11v1.6h2.6v0.7H10v-5.3h3.5v0.7H11v1.5h2.2V167.7z"/>
			<path class="st4" d="M15.6,167.5l0.8-1.3h1l-1.2,2l1.3,2h-1l-0.8-1.4l-0.8,1.4h-1l1.3-2l-1.2-2h1L15.6,167.5z"/>
			<path class="st4" d="M18.8,166.6c0.3-0.3,0.7-0.5,1.1-0.5c0.8,0,1.3,0.5,1.3,1.4v2.6h-0.9v-2.6c0-0.3-0.1-0.5-0.2-0.6
				c-0.1-0.1-0.3-0.2-0.5-0.2c-0.4,0-0.6,0.2-0.8,0.5v2.8H18v-5.6h0.9V166.6z"/>
			<path class="st4" d="M22.1,165.1c0-0.1,0-0.3,0.1-0.3c0.1-0.1,0.2-0.1,0.4-0.1s0.3,0,0.4,0.1s0.1,0.2,0.1,0.3
				c0,0.1,0,0.2-0.1,0.3c-0.1,0.1-0.2,0.1-0.4,0.1s-0.3,0-0.4-0.1C22.2,165.4,22.1,165.3,22.1,165.1z M23.1,170.1h-0.9v-4h0.9V170.1
				z"/>
			<path class="st4" d="M27.5,168.2c0,0.6-0.1,1.1-0.4,1.5c-0.3,0.4-0.7,0.5-1.1,0.5c-0.5,0-0.8-0.2-1.1-0.5l0,0.4H24v-5.6h0.9v2
				c0.3-0.3,0.6-0.5,1-0.5c0.5,0,0.9,0.2,1.1,0.5C27.4,167,27.5,167.5,27.5,168.2L27.5,168.2z M26.6,168.1c0-0.4-0.1-0.8-0.2-1
				c-0.2-0.2-0.4-0.3-0.7-0.3c-0.4,0-0.7,0.2-0.8,0.5v1.6c0.2,0.3,0.4,0.5,0.8,0.5c0.3,0,0.5-0.1,0.6-0.3s0.2-0.5,0.2-0.9V168.1z"/>
			<path class="st4" d="M28.3,165.1c0-0.1,0-0.3,0.1-0.3c0.1-0.1,0.2-0.1,0.4-0.1s0.3,0,0.4,0.1s0.1,0.2,0.1,0.3
				c0,0.1,0,0.2-0.1,0.3c-0.1,0.1-0.2,0.1-0.4,0.1s-0.3,0-0.4-0.1C28.3,165.4,28.3,165.3,28.3,165.1z M29.2,170.1h-0.9v-4h0.9V170.1
				z"/>
			<path class="st4" d="M31.3,165.2v1H32v0.7h-0.7v2.2c0,0.2,0,0.3,0.1,0.3c0.1,0.1,0.2,0.1,0.3,0.1c0.1,0,0.2,0,0.3,0v0.7
				c-0.2,0.1-0.4,0.1-0.6,0.1c-0.7,0-1-0.4-1-1.1v-2.2h-0.7v-0.7h0.7v-1H31.3z"/>
			<path class="st4" d="M32.7,165.1c0-0.1,0-0.3,0.1-0.3c0.1-0.1,0.2-0.1,0.4-0.1s0.3,0,0.4,0.1s0.1,0.2,0.1,0.3
				c0,0.1,0,0.2-0.1,0.3c-0.1,0.1-0.2,0.1-0.4,0.1s-0.3,0-0.4-0.1C32.7,165.4,32.7,165.3,32.7,165.1z M33.6,170.1h-0.9v-4h0.9V170.1
				z"/>
			<path class="st4" d="M34.4,168.1c0-0.4,0.1-0.7,0.2-1c0.2-0.3,0.4-0.6,0.6-0.7c0.3-0.2,0.6-0.3,1-0.3c0.5,0,1,0.2,1.3,0.5
				c0.3,0.3,0.5,0.8,0.5,1.4l0,0.2c0,0.4-0.1,0.7-0.2,1c-0.1,0.3-0.4,0.5-0.6,0.7c-0.3,0.2-0.6,0.3-1,0.3c-0.6,0-1-0.2-1.3-0.6
				C34.6,169.3,34.4,168.8,34.4,168.1L34.4,168.1z M35.3,168.2c0,0.4,0.1,0.7,0.3,1c0.2,0.2,0.4,0.3,0.7,0.3c0.3,0,0.5-0.1,0.7-0.4
				c0.2-0.2,0.3-0.6,0.3-1c0-0.4-0.1-0.7-0.3-1c-0.2-0.2-0.4-0.4-0.7-0.4c-0.3,0-0.5,0.1-0.7,0.3C35.4,167.4,35.3,167.7,35.3,168.2z
				"/>
			<path class="st4" d="M39.7,166.2l0,0.5c0.3-0.4,0.7-0.5,1.2-0.5c0.8,0,1.2,0.5,1.3,1.4v2.6h-0.9v-2.6c0-0.3-0.1-0.4-0.2-0.6
				c-0.1-0.1-0.3-0.2-0.5-0.2c-0.4,0-0.6,0.2-0.8,0.5v2.8h-0.9v-4H39.7z"/>
		</g>
		<polyline class="st5" points="0,216 45,179.9 90.1,216 		"/>
		<g class="st0">
			<g>
				<rect x="14" y="91.5" class="st6" width="0.9" height="0.7"/>
				<rect x="16.5" y="89.3" class="st6" width="0.9" height="0.7"/>
				<rect x="11.7" y="93.5" class="st6" width="0.9" height="0.7"/>
				<g>
					<rect x="18.9" y="91.5" class="st6" width="0.9" height="0.7"/>
					<rect x="21.4" y="89.4" class="st6" width="0.9" height="0.7"/>
					<rect x="16.6" y="93.6" class="st6" width="0.9" height="0.7"/>
					<rect x="11.7" y="97.9" class="st6" width="0.9" height="0.7"/>
					<rect x="14.1" y="95.7" class="st6" width="0.9" height="0.7"/>
					<rect x="9.4" y="99.9" class="st6" width="0.9" height="0.7"/>
					<rect x="23.7" y="87.5" class="st6" width="0.9" height="0.7"/>
				</g>
				<g>
					<rect x="21.5" y="93.5" class="st6" width="0.9" height="0.7"/>
					<rect x="23.9" y="91.4" class="st6" width="0.9" height="0.7"/>
					<rect x="19.2" y="95.6" class="st6" width="0.9" height="0.7"/>
					<rect x="14.2" y="99.9" class="st6" width="0.9" height="0.7"/>
					<rect x="16.6" y="97.8" class="st6" width="0.9" height="0.7"/>
					<rect x="11.9" y="102" class="st6" width="0.9" height="0.7"/>
					<rect x="26.3" y="89.5" class="st6" width="0.9" height="0.7"/>
				</g>
				<g>
					<rect x="21.6" y="97.7" class="st6" width="0.9" height="0.7"/>
					<rect x="24" y="95.6" class="st6" width="0.9" height="0.7"/>
					<rect x="19.3" y="99.8" class="st6" width="0.9" height="0.7"/>
					<rect x="14.3" y="104.1" class="st6" width="0.9" height="0.7"/>
					<rect x="16.7" y="101.9" class="st6" width="0.9" height="0.7"/>
					<rect x="12" y="106.1" class="st6" width="0.9" height="0.7"/>
					<rect x="26.4" y="93.7" class="st6" width="0.9" height="0.7"/>
					<rect x="28.8" y="91.4" class="st6" width="0.9" height="0.7"/>
				</g>
				<g>
					<rect x="23.8" y="100" class="st6" width="0.9" height="0.7"/>
					<rect x="26.2" y="97.8" class="st6" width="0.9" height="0.7"/>
					<rect x="21.5" y="102" class="st6" width="0.9" height="0.7"/>
					<rect x="16.5" y="106.3" class="st6" width="0.9" height="0.7"/>
					<rect x="19" y="104.2" class="st6" width="0.9" height="0.7"/>
					<rect x="14.2" y="108.4" class="st6" width="0.9" height="0.7"/>
					<rect x="28.6" y="95.9" class="st6" width="0.9" height="0.7"/>
					<rect x="31" y="93.7" class="st6" width="0.9" height="0.7"/>
				</g>
				<g>
					<rect x="26.3" y="101.9" class="st6" width="0.9" height="0.7"/>
					<rect x="28.7" y="99.8" class="st6" width="0.9" height="0.7"/>
					<rect x="24" y="104" class="st6" width="0.9" height="0.7"/>
					<rect x="19" y="108.3" class="st6" width="0.9" height="0.7"/>
					<rect x="21.5" y="106.2" class="st6" width="0.9" height="0.7"/>
					<rect x="16.7" y="110.4" class="st6" width="0.9" height="0.7"/>
					<rect x="31.1" y="97.9" class="st6" width="0.9" height="0.7"/>
					<rect x="33.5" y="95.6" class="st6" width="0.9" height="0.7"/>
				</g>
				<rect x="28.5" y="104.2" class="st6" width="0.9" height="0.7"/>
				<rect x="30.9" y="102.1" class="st6" width="0.9" height="0.7"/>
				<rect x="26.2" y="106.3" class="st6" width="0.9" height="0.7"/>
				<rect x="23.9" y="108.3" class="st6" width="0.9" height="0.7"/>
				<rect x="21.6" y="110.4" class="st6" width="0.9" height="0.7"/>
				<rect x="31.1" y="106.2" class="st6" width="0.9" height="0.7"/>
				<rect x="28.8" y="108.2" class="st6" width="0.9" height="0.7"/>
			</g>
			<g>
				<g>
					<rect x="59.1" y="90.8" class="st6" width="0.9" height="0.7"/>
					<rect x="61.5" y="88.7" class="st6" width="0.9" height="0.7"/>
					<rect x="56.8" y="92.9" class="st6" width="0.9" height="0.7"/>
					<g>
						<rect x="64" y="90.9" class="st6" width="0.9" height="0.7"/>
						<rect x="66.4" y="88.7" class="st6" width="0.9" height="0.7"/>
						<rect x="61.7" y="92.9" class="st6" width="0.9" height="0.7"/>
						<rect x="56.7" y="97.2" class="st6" width="0.9" height="0.7"/>
						<rect x="59.1" y="95.1" class="st6" width="0.9" height="0.7"/>
						<rect x="54.4" y="99.3" class="st6" width="0.9" height="0.7"/>
						<rect x="68.8" y="86.8" class="st6" width="0.9" height="0.7"/>
					</g>
					<g>
						<rect x="66.5" y="92.9" class="st6" width="0.9" height="0.7"/>
						<rect x="68.9" y="90.8" class="st6" width="0.9" height="0.7"/>
						<rect x="64.2" y="95" class="st6" width="0.9" height="0.7"/>
						<rect x="59.3" y="99.3" class="st6" width="0.9" height="0.7"/>
						<rect x="61.7" y="97.1" class="st6" width="0.9" height="0.7"/>
						<rect x="57" y="101.3" class="st6" width="0.9" height="0.7"/>
						<rect x="71.3" y="88.9" class="st6" width="0.9" height="0.7"/>
					</g>
					<g>
						<rect x="66.6" y="97.1" class="st6" width="0.9" height="0.7"/>
						<rect x="69" y="94.9" class="st6" width="0.9" height="0.7"/>
						<rect x="64.3" y="99.1" class="st6" width="0.9" height="0.7"/>
						<rect x="59.4" y="103.4" class="st6" width="0.9" height="0.7"/>
						<rect x="61.8" y="101.3" class="st6" width="0.9" height="0.7"/>
						<rect x="57.1" y="105.5" class="st6" width="0.9" height="0.7"/>
						<rect x="71.4" y="93" class="st6" width="0.9" height="0.7"/>
						<rect x="73.8" y="90.8" class="st6" width="0.9" height="0.7"/>
					</g>
					<g>
						<rect x="68.8" y="99.3" class="st6" width="0.9" height="0.7"/>
						<rect x="71.3" y="97.2" class="st6" width="0.9" height="0.7"/>
						<rect x="66.5" y="101.4" class="st6" width="0.9" height="0.7"/>
						<rect x="61.6" y="105.7" class="st6" width="0.9" height="0.7"/>
						<rect x="64" y="103.6" class="st6" width="0.9" height="0.7"/>
						<rect x="59.3" y="107.8" class="st6" width="0.9" height="0.7"/>
						<rect x="73.6" y="95.3" class="st6" width="0.9" height="0.7"/>
						<rect x="76" y="93" class="st6" width="0.9" height="0.7"/>
					</g>
					<g>
						<rect x="71.3" y="101.3" class="st6" width="0.9" height="0.7"/>
						<rect x="73.8" y="99.2" class="st6" width="0.9" height="0.7"/>
						<rect x="69" y="103.4" class="st6" width="0.9" height="0.7"/>
						<rect x="64.1" y="107.7" class="st6" width="0.9" height="0.7"/>
						<rect x="66.5" y="105.5" class="st6" width="0.9" height="0.7"/>
						<rect x="61.8" y="109.7" class="st6" width="0.9" height="0.7"/>
						<rect x="76.1" y="97.3" class="st6" width="0.9" height="0.7"/>
						<rect x="78.5" y="95" class="st6" width="0.9" height="0.7"/>
					</g>
					<rect x="73.6" y="103.6" class="st6" width="0.9" height="0.7"/>
					<rect x="76" y="101.5" class="st6" width="0.9" height="0.7"/>
					<rect x="71.3" y="105.7" class="st6" width="0.9" height="0.7"/>
					<rect x="68.9" y="107.7" class="st6" width="0.9" height="0.7"/>
					<rect x="66.6" y="109.7" class="st6" width="0.9" height="0.7"/>
					<rect x="76.1" y="105.5" class="st6" width="0.9" height="0.7"/>
					<rect x="73.8" y="107.6" class="st6" width="0.9" height="0.7"/>
				</g>
				<rect x="78.5" y="99.3" class="st6" width="0.9" height="0.7"/>
				<rect x="78.5" y="103.6" class="st6" width="0.9" height="0.7"/>
			</g>
			<circle class="st6" cx="41" cy="101.3" r="3.8"/>
			<path class="st6" d="M29,73.7c0,0-2,0.1-0.8-1.4h2.3l1.7,0.7h5.5c0,0,1.6,0.1,0.5,1.4h-3.4l-1,0.7l-1.6,0.3
				C32.2,75.3,31.5,74.2,29,73.7z"/>
			<path class="st6" d="M59.5,71.6c0,0,1.2-1.4,1.6,0c0,0,0.4,4-5.3,4.4c0,0-1.3-0.9,0-1.4C55.8,74.6,59.5,74.9,59.5,71.6z"/>
			<path class="st3" d="M68.7,99.9l-11-24.7c-0.8-1.5-1.5,0.2-1.5,0.2l0.9,2.6H34.8l-1.2-3.4c-0.9-0.8-1.4,0.6-1.4,0.6l1,3.2
				c-0.2,1.5-0.4,1.2-0.4,1.2l-11,19c-1,1.7,0.8,1.7,0.8,1.7l19,1.6l2.9,2.9l-0.8,0.7c-0.4,1.1,0.5,0.6,0.5,0.6l2.2-1.8
				c0.4-1.4-0.6-0.8-0.6-0.8l-0.8,0.8l-2.8-2.7l0.1-0.3l16.9-18.4l8.3,17.8C69.2,101.8,68.7,99.9,68.7,99.9z M39.4,100.4l-16.3-1.5
				l9.1-15.9l1.6-2.5l5.6,17.7V100.4z M41.4,99.6l-6.3-20.2h22.5l0.9,2L41.4,99.6z"/>
			<path class="st3" d="M39.5,99.3l-2.5-2.5l0.9-0.8c0,0,0.3-1.4-1.2,0c-1.5,1.4-1.5,1.4-1.5,1.4s-0.3,0.7,0.6,0.6l0.7-0.7l3,3V99.3
				z"/>
			<g>
				<path class="st7" d="M22.2,87.3c7.1,0,12.9,5.4,12.9,12.1s-5.8,12.1-12.9,12.1S9.3,106,9.3,99.4S15,87.3,22.2,87.3 M22.2,86.5
					c-7.5,0-13.6,5.7-13.6,12.8c0,7.1,6.1,12.8,13.6,12.8s13.6-5.7,13.6-12.8C35.8,92.3,29.7,86.5,22.2,86.5L22.2,86.5z"/>
			</g>
			<g>
				<path class="st7" d="M67.4,86.7c7.1,0,12.9,5.4,12.9,12.1s-5.8,12.1-12.9,12.1s-12.9-5.4-12.9-12.1S60.2,86.7,67.4,86.7
					 M67.4,86c-7.5,0-13.6,5.7-13.6,12.8c0,7.1,6.1,12.8,13.6,12.8S81,105.9,81,98.8C81,91.7,74.9,86,67.4,86L67.4,86z"/>
			</g>
		</g>
	</g>
</g>
</svg>
